<svg viewBox="0 0 76.805 23.156" height="23.156" width="76.805" xmlns="http://www.w3.org/2000/svg">
  <g transform="translate(-0.001)" id="amazon-ar21">
    <path fill-rule="evenodd" fill="#f90" transform="translate(-13.262 -21.344)" d="M60.914,39.454c-4.455,3.29-10.933,5.047-16.5,5.047A29.86,29.86,0,0,1,24.25,36.807c-.418-.378-.044-.893.458-.6a40.564,40.564,0,0,0,20.17,5.35,40.11,40.11,0,0,0,15.387-3.146c.756-.321,1.387.495.648,1.043m1.857-2.123c-.568-.73-3.764-.344-5.209-.174-.438.054-.5-.328-.111-.6,2.55-1.8,6.736-1.277,7.226-.676s-.127,4.8-2.524,6.8c-.369.307-.719.144-.555-.264.538-1.344,1.745-4.357,1.174-5.089" data-name="Path 303039" id="Path_303039"></path>
    <path fill-rule="evenodd" fill="#221f1f" transform="translate(-9.999 -17.126)" d="M54.4,19.662V17.916a.43.43,0,0,1,.442-.442h7.813a.435.435,0,0,1,.452.442V19.41a2.472,2.472,0,0,1-.588,1.1l-4.048,5.781a8.624,8.624,0,0,1,4.457.956.812.812,0,0,1,.415.679v1.863c0,.253-.281.552-.576.4a9,9,0,0,0-8.255.013c-.271.147-.555-.147-.555-.4V28.027a2.112,2.112,0,0,1,.287-1.2L58.932,20.1H54.857a.432.432,0,0,1-.452-.438M25.9,30.552H23.519a.45.45,0,0,1-.425-.4v-12.2a.446.446,0,0,1,.458-.438h2.217a.448.448,0,0,1,.432.407V19.51h.044a3.266,3.266,0,0,1,6.215,0,3.51,3.51,0,0,1,6.035-.926c.753,1.026.6,2.518.6,3.825l-.005,7.7a.449.449,0,0,1-.458.442H36.249a.457.457,0,0,1-.428-.442V23.635a15.37,15.37,0,0,0-.067-2.287,1.238,1.238,0,0,0-1.4-1.05,1.577,1.577,0,0,0-1.421,1,7.385,7.385,0,0,0-.22,2.337V30.1a.449.449,0,0,1-.458.442H29.876a.45.45,0,0,1-.428-.442l0-6.468c0-1.361.224-3.364-1.465-3.364-1.708,0-1.641,1.953-1.641,3.364V30.1a.449.449,0,0,1-.458.442M69.832,17.26c3.527,0,5.437,3.029,5.437,6.881,0,3.722-2.11,6.673-5.437,6.673-3.456,0-5.35-3.029-5.35-6.8,0-3.8,1.909-6.759,5.35-6.759m.02,2.491c-1.751,0-1.863,2.387-1.863,3.875s-.023,4.674,1.842,4.674c1.842,0,1.929-2.568,1.929-4.132a11.332,11.332,0,0,0-.353-3.237,1.487,1.487,0,0,0-1.555-1.181m9.991,10.811H77.476a.457.457,0,0,1-.428-.442l0-12.2a.449.449,0,0,1,.458-.4h2.2a.455.455,0,0,1,.425.341v1.867h.044c.665-1.668,1.6-2.464,3.24-2.464a3.109,3.109,0,0,1,2.775,1.438,7.836,7.836,0,0,1,.614,3.8v7.681a.456.456,0,0,1-.458.384h-2.38a.449.449,0,0,1-.421-.384V23.543c0-1.334.154-3.288-1.488-3.288a1.575,1.575,0,0,0-1.383.976,5.4,5.4,0,0,0-.378,2.311v6.57a.457.457,0,0,1-.465.442M48.169,24.716a4.66,4.66,0,0,1-.445,2.521,1.932,1.932,0,0,1-1.645,1.08c-.912,0-1.448-.7-1.448-1.722,0-2.026,1.816-2.394,3.537-2.394v.515m2.4,5.795a.5.5,0,0,1-.561.057,5.813,5.813,0,0,1-1.364-1.585A4.708,4.708,0,0,1,44.72,30.71a3.372,3.372,0,0,1-3.558-3.7A4.034,4.034,0,0,1,43.7,23.12a16.48,16.48,0,0,1,4.47-.826v-.307a3.023,3.023,0,0,0-.292-1.722,1.582,1.582,0,0,0-1.334-.618,1.808,1.808,0,0,0-1.909,1.429.5.5,0,0,1-.415.435l-2.3-.247a.418.418,0,0,1-.353-.5c.528-2.8,3.057-3.638,5.315-3.638a5.39,5.39,0,0,1,3.581,1.183C51.612,19.389,51.5,20.83,51.5,22.4v3.7a3.252,3.252,0,0,0,.9,2.2.449.449,0,0,1-.01.632l-1.817,1.585,0-.008M17.005,24.723a4.66,4.66,0,0,1-.445,2.521,1.928,1.928,0,0,1-1.645,1.08c-.912,0-1.444-.7-1.444-1.722,0-2.026,1.816-2.394,3.533-2.394v.515m2.4,5.795a.5.5,0,0,1-.561.057,6.008,6.008,0,0,1-1.364-1.585,4.705,4.705,0,0,1-3.919,1.728A3.372,3.372,0,0,1,10,27.015a4.038,4.038,0,0,1,2.535-3.885,16.48,16.48,0,0,1,4.47-.826V22a3.059,3.059,0,0,0-.287-1.722,1.591,1.591,0,0,0-1.334-.618,1.825,1.825,0,0,0-1.92,1.429.5.5,0,0,1-.411.435l-2.307-.247a.421.421,0,0,1-.353-.5c.532-2.8,3.057-3.638,5.315-3.638a5.39,5.39,0,0,1,3.581,1.183c1.157,1.08,1.046,2.521,1.046,4.089v3.7a3.252,3.252,0,0,0,.9,2.2.446.446,0,0,1-.008.632L19.41,30.525l-.008-.008" data-name="Path 303040" id="Path_303040"></path>
  </g>
</svg>
