<svg viewBox="0 0 75.807 16.48" height="16.48" width="75.807" xmlns:xlink="http://www.w3.org/1999/xlink" xmlns="http://www.w3.org/2000/svg">
  <defs>
    <clipPath id="clip-path">
      <rect stroke-width="1" stroke="#707070" fill="#fff" transform="translate(0 0)" height="16.48" width="16.48" data-name="Rectangle 29225" id="Rectangle_29225"></rect>
    </clipPath>
    <clipPath id="clip-path-2">
      <rect stroke-width="1" stroke="#707070" fill="#fff" transform="translate(0 0)" height="14.832" width="57.679" data-name="Rectangle 29226" id="Rectangle_29226"></rect>
    </clipPath>
  </defs>
  <g transform="translate(0.001)" data-name="Group 434610" id="Group_434610">
    <g clip-path="url(#clip-path)" transform="translate(-0.001 0)" data-name="Mask Group 612" id="Mask_Group_612">
      <path fill-rule="evenodd" fill="#a5cd39" transform="translate(-176.871 -70.33)" d="M179.668,70.5a2.622,2.622,0,0,1,.422-.021h11.78a2.573,2.573,0,0,1,2.067,1.123,2.471,2.471,0,0,1,.382.907,3.616,3.616,0,0,1,.049.733V84.287a4.806,4.806,0,0,1-.06,1.033,2.553,2.553,0,0,1-2.588,1.989H179.913a2.525,2.525,0,0,1-2.407-2.162,5.46,5.46,0,0,1-.027-.758V73.414a4.337,4.337,0,0,1,.057-.957,2.529,2.529,0,0,1,2.131-1.961Z" data-name="Path 303044" id="Path_303044"></path>
      <path fill-rule="evenodd" fill="#ec1c24" transform="translate(-176.882 -151.744)" d="M179.88,154h2.226c0,1.746,0,3.491,0,5.237.068-.068.114-.153.178-.225a2.9,2.9,0,0,1,1.793-.959,3.142,3.142,0,0,1,3.378,1.634,5.254,5.254,0,0,1,.541,1.5,5.662,5.662,0,0,1-.183,2.953,3.9,3.9,0,0,1-.7,1.314,3.338,3.338,0,0,1-.934.808,3.11,3.11,0,0,1-1.541.357,4.134,4.134,0,0,1-1.51-.232,3.358,3.358,0,0,1-.544-.3,1.447,1.447,0,0,1-.413-.393,1.487,1.487,0,0,1-.19-.348,1.022,1.022,0,0,1-.2.747,1.428,1.428,0,0,1-.82.443,3.766,3.766,0,0,1-1.076.058c-.011-1.3,0-2.6,0-3.9Q179.88,158.347,179.88,154Zm3.764,5.714a1.8,1.8,0,0,0-1.078.66,2.764,2.764,0,0,0-.523,1.219,3.4,3.4,0,0,0,0,1.438,2.777,2.777,0,0,0,.6,1.319,1.639,1.639,0,0,0,1.068.574,1.688,1.688,0,0,0,1.185-.252,1.945,1.945,0,0,0,.59-.774,3.757,3.757,0,0,0,.315-1.651,4.5,4.5,0,0,0-.2-1.258,2.3,2.3,0,0,0-.629-.965A1.681,1.681,0,0,0,183.643,159.71Zm-6.154,10.236c.2,0,.408,0,.612,0q0,.708,0,1.415a.8.8,0,0,1,.534-.314.842.842,0,0,1,.765.225,1.209,1.209,0,0,1,.323.661,1.549,1.549,0,0,1-.163,1.023.849.849,0,0,1-.592.427,1.048,1.048,0,0,1-.67-.1.494.494,0,0,1-.224-.215.3.3,0,0,1-.114.23.77.77,0,0,1-.469.092C177.488,172.241,177.491,171.093,177.49,169.946Zm.982,1.572a.582.582,0,0,0-.376.467.945.945,0,0,0,.135.758.468.468,0,0,0,.681.071A.949.949,0,0,0,179.1,172a.636.636,0,0,0-.231-.423A.439.439,0,0,0,178.472,171.518Zm1.433-1.572h.611c0,.17,0,.34,0,.511h-.611C179.9,170.286,179.906,170.115,179.905,169.945Zm1.578,1.1a.747.747,0,0,1,.819.353.333.333,0,0,1,.17-.222.8.8,0,0,1,.422-.076q0,1.009,0,2.018a1.288,1.288,0,0,1-.092.527.979.979,0,0,1-.789.517,1.325,1.325,0,0,1-.935-.18.69.69,0,0,1-.31-.523c.2,0,.405,0,.608,0a.374.374,0,0,0,.154.219.655.655,0,0,0,.463.055.449.449,0,0,0,.308-.393c.012-.141,0-.283.006-.425a.657.657,0,0,1-.465.33.908.908,0,0,1-1.127-.857,1.567,1.567,0,0,1,.08-.768A.909.909,0,0,1,181.484,171.044Zm.191.471a.427.427,0,0,0-.278.229.983.983,0,0,0-.076.542.53.53,0,0,0,.37.5.489.489,0,0,0,.535-.241.968.968,0,0,0-.031-.843A.463.463,0,0,0,181.675,171.516Zm-1.77-.416h.612q0,1.148,0,2.295h-.612Z" data-name="Path 303045" id="Path_303045"></path>
      <path fill-rule="evenodd" fill="#231f20" transform="translate(-396.947 -151.744)" d="M405.041,154h1.35q0,2.026,0,4.051a2.454,2.454,0,0,0-1.35-.413Q405.041,155.814,405.041,154Zm1.864,4.441a3.183,3.183,0,0,1,1.586-.436,3.272,3.272,0,0,1,2.237.873,3.582,3.582,0,0,1,.872,1.224,5.728,5.728,0,0,1,.412,2.882,6.147,6.147,0,0,1-.361,1.443,3.779,3.779,0,0,1-.7,1.143,2.9,2.9,0,0,1-2.385,1.051,3.568,3.568,0,0,1-1.826-.391,4.6,4.6,0,0,0,.825-.883,2.231,2.231,0,0,0,1.375.045,1.844,1.844,0,0,0,.9-.626,3.086,3.086,0,0,0,.541-1.122,5.248,5.248,0,0,0,.152-1.744,4.379,4.379,0,0,0-.392-1.562,2.155,2.155,0,0,0-.825-.937,2.114,2.114,0,0,0-1.7-.137A4.615,4.615,0,0,0,406.9,158.436Zm-3.655,11.509h.391c0,.48,0,.96,0,1.439a.737.737,0,0,1,.385-.311.89.89,0,0,1,.9.211,1.227,1.227,0,0,1,.3.821,1.658,1.658,0,0,1-.222.909.894.894,0,0,1-1.107.331.7.7,0,0,1-.284-.283.28.28,0,0,1-.072.232c-.078.077-.2.054-.295.057Zm.838,1.446a.487.487,0,0,0-.32.228,1.2,1.2,0,0,0-.147.568,1.038,1.038,0,0,0,.113.615.58.58,0,0,0,.521.278.529.529,0,0,0,.449-.27,1.256,1.256,0,0,0,.137-.653.966.966,0,0,0-.171-.594A.6.6,0,0,0,404.087,171.391Zm5.5-1.446h.366q0,1.079,0,2.158.4-.392.8-.781a.452.452,0,0,1,.335-.16.345.345,0,0,1,.219.1c-.248.252-.505.493-.758.74.3.475.61.947.912,1.421h-.493l-.7-1.138c-.107.093-.212.188-.317.283,0,.285,0,.57,0,.855h-.366Q409.588,171.683,409.588,169.946Zm4.112,0h.378q0,.591,0,1.182a.455.455,0,0,1,.294.118.314.314,0,0,1,.075.2h-.369q0,.723,0,1.446a.167.167,0,0,0,.073.161.714.714,0,0,0,.292.026q0,.153,0,.305a.951.951,0,0,1-.552-.019.408.408,0,0,1-.191-.375c0-.514,0-1.029,0-1.544h-.309v-.315h.309Q413.7,170.538,413.7,169.945Zm-8.027,1.289a1.114,1.114,0,0,1,.751-.2.982.982,0,0,1,.631.219.526.526,0,0,1,.156.379c0,.421,0,.842,0,1.263,0,.064,0,.147.066.179a.606.606,0,0,0,.186,0v.279a.552.552,0,0,1-.472-.017.352.352,0,0,1-.136-.282,1.03,1.03,0,0,1-.523.332.9.9,0,0,1-.78-.131.69.69,0,0,1,.086-1.082,2.025,2.025,0,0,1,.757-.167,1.8,1.8,0,0,0,.348-.058.3.3,0,0,0,.095-.317.363.363,0,0,0-.316-.268.746.746,0,0,0-.528.06c-.11.068-.141.21-.251.278a.421.421,0,0,1-.293.061A.735.735,0,0,1,405.673,171.234Zm.671,1.091a1.047,1.047,0,0,0-.5.14.381.381,0,0,0-.054.476.477.477,0,0,0,.5.138.662.662,0,0,0,.53-.414,4.156,4.156,0,0,0,.011-.456A1.841,1.841,0,0,1,406.344,172.325Zm1.434-1.081a.981.981,0,0,1,.637-.213,1.026,1.026,0,0,1,.574.147.685.685,0,0,1,.3.5.44.44,0,0,1-.331-.064c-.106-.06-.164-.186-.289-.213a.807.807,0,0,0-.594.04.271.271,0,0,0-.117.34.4.4,0,0,0,.25.152c.2.057.409.109.614.163a.843.843,0,0,1,.445.247.605.605,0,0,1,.084.469.7.7,0,0,1-.385.5,1.3,1.3,0,0,1-.779.088.825.825,0,0,1-.524-.264.867.867,0,0,1-.17-.513c.126,0,.252,0,.378,0a.464.464,0,0,0,.148.341.763.763,0,0,0,.524.119.5.5,0,0,0,.373-.171.313.313,0,0,0,.048-.265.34.34,0,0,0-.243-.183c-.243-.074-.494-.119-.737-.194a.563.563,0,0,1-.393-.361A.677.677,0,0,1,407.778,171.244Zm3.842.107a.985.985,0,0,1,.679-.315.9.9,0,0,1,.763.26,1.553,1.553,0,0,1,.318,1.046H411.73a.83.83,0,0,0,.178.557.621.621,0,0,0,.492.181.587.587,0,0,0,.569-.449h.378a.945.945,0,0,1-.419.636,1.066,1.066,0,0,1-.656.149.944.944,0,0,1-.685-.319,1.222,1.222,0,0,1-.266-.814A1.381,1.381,0,0,1,411.619,171.35Zm.337.187a.759.759,0,0,0-.225.634.523.523,0,0,1,.442-.133h.8a.842.842,0,0,0-.162-.474A.617.617,0,0,0,411.956,171.538Z" data-name="Path 303046" id="Path_303046"></path>
    </g>
    <g clip-path="url(#clip-path-2)" transform="translate(18.127 1.648)" data-name="Mask Group 613" id="Mask_Group_613">
      <path fill-rule="evenodd" fill="#a5cd39" transform="translate(-175.982 -130.696)" d="M184.824,70.548a8.8,8.8,0,0,1,1.416-.071q19.764,0,39.527,0a8.635,8.635,0,0,1,6.937,3.767,8.294,8.294,0,0,1,1.282,3.043,12.134,12.134,0,0,1,.163,2.458v37.074a16.135,16.135,0,0,1-.2,3.465,8.566,8.566,0,0,1-8.685,6.674H185.648a8.471,8.471,0,0,1-8.076-7.253,18.332,18.332,0,0,1-.091-2.542V80.339a14.562,14.562,0,0,1,.192-3.212,8.487,8.487,0,0,1,7.152-6.58Z" data-name="Path 303041" id="Path_303041"></path>
      <path fill-rule="evenodd" fill="#ec1c24" transform="translate(-175.992 -207.147)" d="M185.51,154q3.735-.005,7.47,0c.007,5.857-.01,11.713.008,17.57.229-.227.383-.515.6-.754a9.745,9.745,0,0,1,6.017-3.217,10.541,10.541,0,0,1,11.334,5.483,17.624,17.624,0,0,1,1.816,5.042,19,19,0,0,1-.615,9.907,13.087,13.087,0,0,1-2.351,4.408,11.2,11.2,0,0,1-3.133,2.711,10.439,10.439,0,0,1-5.169,1.2,13.876,13.876,0,0,1-5.068-.779,11.271,11.271,0,0,1-1.824-.99,4.854,4.854,0,0,1-1.387-1.318,4.987,4.987,0,0,1-.639-1.169,3.43,3.43,0,0,1-.681,2.506,4.791,4.791,0,0,1-2.751,1.486,12.625,12.625,0,0,1-3.61.195c-.036-4.356-.005-8.714-.015-13.07Q185.511,168.6,185.51,154Zm12.628,19.173a6.029,6.029,0,0,0-3.616,2.214,9.274,9.274,0,0,0-1.756,4.089,11.408,11.408,0,0,0-.011,4.826,9.317,9.317,0,0,0,2.02,4.425,5.5,5.5,0,0,0,3.583,1.926,5.665,5.665,0,0,0,3.975-.844,6.527,6.527,0,0,0,1.98-2.6,12.608,12.608,0,0,0,1.056-5.54,15.077,15.077,0,0,0-.655-4.22,7.7,7.7,0,0,0-2.112-3.239A5.642,5.642,0,0,0,198.138,173.169ZM177.49,207.515c.684,0,1.369,0,2.053,0q0,2.374,0,4.748a2.7,2.7,0,0,1,1.791-1.055,2.827,2.827,0,0,1,2.566.755,4.057,4.057,0,0,1,1.083,2.219,5.2,5.2,0,0,1-.548,3.434,2.849,2.849,0,0,1-1.986,1.431,3.516,3.516,0,0,1-2.249-.336,1.657,1.657,0,0,1-.752-.722,1,1,0,0,1-.381.77,2.582,2.582,0,0,1-1.573.308C177.484,215.216,177.495,211.365,177.49,207.515Zm3.3,5.274a1.951,1.951,0,0,0-1.26,1.568,3.171,3.171,0,0,0,.454,2.543,1.569,1.569,0,0,0,2.286.237,3.184,3.184,0,0,0,.613-2.715A2.134,2.134,0,0,0,182.1,213,1.472,1.472,0,0,0,180.786,212.789Zm4.809-5.276h2.052c0,.571,0,1.142,0,1.714-.684,0-1.368,0-2.051,0C185.593,208.656,185.6,208.085,185.6,207.513Zm5.3,3.688a2.508,2.508,0,0,1,2.749,1.183,1.117,1.117,0,0,1,.57-.744,2.691,2.691,0,0,1,1.415-.255q0,3.385,0,6.77a4.319,4.319,0,0,1-.308,1.767,3.284,3.284,0,0,1-2.646,1.734,4.446,4.446,0,0,1-3.136-.6A2.316,2.316,0,0,1,188.5,219.3c.68,0,1.36,0,2.041,0a1.254,1.254,0,0,0,.518.734,2.2,2.2,0,0,0,1.555.185,1.507,1.507,0,0,0,1.033-1.317c.039-.474,0-.951.021-1.425a2.2,2.2,0,0,1-1.559,1.108,3.045,3.045,0,0,1-3.783-2.875,5.258,5.258,0,0,1,.269-2.577A3.051,3.051,0,0,1,190.891,211.2Zm.643,1.582a1.433,1.433,0,0,0-.932.769,3.3,3.3,0,0,0-.254,1.817,1.777,1.777,0,0,0,1.241,1.678,1.642,1.642,0,0,0,1.8-.808,3.247,3.247,0,0,0-.1-2.827A1.554,1.554,0,0,0,191.534,212.783Zm-5.939-1.4c.684,0,1.369,0,2.053,0q0,3.851,0,7.7-1.027,0-2.053,0Z" data-name="Path 303042" id="Path_303042"></path>
      <path fill-rule="evenodd" fill="#231f20" transform="translate(-382.643 -207.147)" d="M409.26,154q2.264,0,4.529,0,0,6.8,0,13.593a8.232,8.232,0,0,0-4.529-1.387Q409.26,160.1,409.26,154Zm6.254,14.9a10.68,10.68,0,0,1,5.321-1.464,10.98,10.98,0,0,1,7.505,2.93,12.021,12.021,0,0,1,2.924,4.108,19.225,19.225,0,0,1,1.383,9.668,20.62,20.62,0,0,1-1.211,4.841,12.682,12.682,0,0,1-2.339,3.835,9.733,9.733,0,0,1-8,3.528,11.973,11.973,0,0,1-6.127-1.311,15.433,15.433,0,0,0,2.767-2.962,7.486,7.486,0,0,0,4.615.152,6.19,6.19,0,0,0,3.035-2.1,10.357,10.357,0,0,0,1.816-3.764,17.606,17.606,0,0,0,.51-5.852,14.7,14.7,0,0,0-1.314-5.241,7.233,7.233,0,0,0-2.769-3.144,7.091,7.091,0,0,0-5.7-.459A15.481,15.481,0,0,0,415.513,168.9ZM403.25,207.513h1.312c0,1.61,0,3.22,0,4.83a2.473,2.473,0,0,1,1.293-1.044,2.989,2.989,0,0,1,3.018.707,4.12,4.12,0,0,1,1.02,2.754,5.563,5.563,0,0,1-.745,3.051,3,3,0,0,1-3.714,1.112,2.337,2.337,0,0,1-.951-.95.937.937,0,0,1-.242.777c-.262.257-.657.18-.989.19Zm2.81,4.852a1.634,1.634,0,0,0-1.075.766,4.023,4.023,0,0,0-.494,1.907,3.479,3.479,0,0,0,.378,2.064,1.945,1.945,0,0,0,1.749.932,1.775,1.775,0,0,0,1.506-.906,4.21,4.21,0,0,0,.458-2.19,3.242,3.242,0,0,0-.572-1.994A2.022,2.022,0,0,0,406.06,212.365Zm18.456-4.851c.409,0,.818,0,1.227,0q0,3.62,0,7.24,1.34-1.317,2.689-2.622a1.515,1.515,0,0,1,1.122-.538,1.159,1.159,0,0,1,.734.328c-.83.846-1.7,1.656-2.544,2.483,1.011,1.595,2.045,3.176,3.061,4.768h-1.652q-1.173-1.911-2.35-3.819c-.36.311-.712.63-1.063.951,0,.956,0,1.912,0,2.869h-1.227Q424.516,213.344,424.516,207.514Zm13.8,0h1.268c0,1.322,0,2.644,0,3.966a1.527,1.527,0,0,1,.988.394,1.056,1.056,0,0,1,.251.676h-1.239q0,2.425,0,4.852a.562.562,0,0,0,.246.541,2.4,2.4,0,0,0,.98.086q0,.512,0,1.024a3.193,3.193,0,0,1-1.853-.065,1.37,1.37,0,0,1-.64-1.259c-.006-1.726,0-3.453,0-5.18h-1.037v-1.058h1.036C438.315,210.165,438.313,208.839,438.315,207.513Zm-26.934,4.325a3.737,3.737,0,0,1,2.518-.68,3.3,3.3,0,0,1,2.118.733,1.763,1.763,0,0,1,.523,1.272c0,1.413,0,2.825,0,4.238,0,.213-.007.494.223.6a2.033,2.033,0,0,0,.625,0v.935a1.853,1.853,0,0,1-1.585-.057,1.181,1.181,0,0,1-.456-.945,3.454,3.454,0,0,1-1.755,1.115,3,3,0,0,1-2.616-.439,2.316,2.316,0,0,1,.288-3.629,6.8,6.8,0,0,1,2.539-.559,6.022,6.022,0,0,0,1.169-.194.992.992,0,0,0,.318-1.062,1.218,1.218,0,0,0-1.06-.9,2.5,2.5,0,0,0-1.772.2c-.37.229-.474.705-.844.931a1.414,1.414,0,0,1-.982.2A2.464,2.464,0,0,1,411.381,211.838Zm2.25,3.659a3.512,3.512,0,0,0-1.678.471,1.278,1.278,0,0,0-.183,1.6,1.6,1.6,0,0,0,1.687.462,2.222,2.222,0,0,0,1.777-1.388,13.946,13.946,0,0,0,.037-1.53A6.176,6.176,0,0,1,413.631,215.5Zm4.811-3.627a3.293,3.293,0,0,1,2.139-.716,3.442,3.442,0,0,1,1.927.493,2.3,2.3,0,0,1,1,1.688,1.475,1.475,0,0,1-1.11-.215c-.355-.2-.55-.624-.969-.715a2.709,2.709,0,0,0-1.992.135.91.91,0,0,0-.391,1.139,1.339,1.339,0,0,0,.839.51c.684.192,1.372.366,2.06.547a2.827,2.827,0,0,1,1.494.83,2.031,2.031,0,0,1,.281,1.574,2.341,2.341,0,0,1-1.293,1.662,4.366,4.366,0,0,1-2.615.3,2.769,2.769,0,0,1-1.76-.886,2.908,2.908,0,0,1-.57-1.723c.422-.005.845,0,1.267,0a1.554,1.554,0,0,0,.5,1.144,2.559,2.559,0,0,0,1.759.4,1.691,1.691,0,0,0,1.25-.572,1.048,1.048,0,0,0,.16-.888,1.141,1.141,0,0,0-.814-.615c-.815-.25-1.657-.4-2.472-.651a1.889,1.889,0,0,1-1.319-1.212A2.271,2.271,0,0,1,418.442,211.87Zm12.89.358a3.3,3.3,0,0,1,2.277-1.056,3.008,3.008,0,0,1,2.561.872,5.212,5.212,0,0,1,1.067,3.511c-1.844,0-3.689,0-5.533,0a2.787,2.787,0,0,0,.6,1.87,2.084,2.084,0,0,0,1.65.607,1.968,1.968,0,0,0,1.908-1.507c.423,0,.846,0,1.27,0a3.17,3.17,0,0,1-1.4,2.135,3.577,3.577,0,0,1-2.2.5,3.169,3.169,0,0,1-2.3-1.07,4.1,4.1,0,0,1-.892-2.731A4.63,4.63,0,0,1,431.332,212.228Zm1.129.629a2.548,2.548,0,0,0-.753,2.128,1.755,1.755,0,0,1,1.483-.447c.9,0,1.8,0,2.7,0a2.829,2.829,0,0,0-.544-1.59A2.071,2.071,0,0,0,432.462,212.857Z" data-name="Path 303043" id="Path_303043"></path>
    </g>
  </g>
</svg>
